<svg width="465" height="394" viewBox="0 0 465 394" fill="none" xmlns="http://www.w3.org/2000/svg">
<path d="M427.848 326.837C427.75 326.837 429.289 320.124 429.431 319.709C431.112 314.939 437.182 306.697 442.847 306.85C443.789 306.9 444.71 307.148 445.549 307.579C446.389 308.009 447.128 308.612 447.718 309.348C448.308 310.083 448.737 310.935 448.975 311.848C449.214 312.761 449.257 313.713 449.102 314.644C448.589 318.607 444.932 321.914 441.646 323.792C437.782 325.997 427.859 326.837 427.848 326.837Z" fill="#1A1A60"/>
<path d="M428.481 299.525C428.383 299.525 430.915 293.106 431.123 292.724C433.513 288.249 440.751 281.022 446.329 282.037C447.252 282.23 448.123 282.615 448.887 283.168C449.651 283.72 450.29 284.427 450.763 285.242C451.236 286.058 451.531 286.964 451.631 287.901C451.73 288.839 451.631 289.786 451.34 290.683C450.248 294.536 446.111 297.233 442.607 298.597C438.426 300.202 428.492 299.525 428.481 299.525Z" fill="#1A1A60"/>
<path d="M435.599 269.167C435.49 269.167 438.023 262.748 438.23 262.366C440.621 257.902 447.869 250.675 453.447 251.679C454.37 251.873 455.242 252.26 456.005 252.813C456.769 253.367 457.408 254.075 457.879 254.892C458.351 255.708 458.645 256.615 458.743 257.553C458.841 258.491 458.74 259.439 458.447 260.336C457.355 264.178 453.218 266.886 449.714 268.25C445.544 269.844 435.599 269.167 435.599 269.167Z" fill="#1A1A60"/>
<path d="M440.915 240.217C440.805 240.217 443.338 233.798 443.545 233.405C445.936 228.941 453.184 221.714 458.763 222.729C459.685 222.922 460.557 223.307 461.321 223.86C462.085 224.412 462.724 225.119 463.197 225.934C463.669 226.75 463.965 227.656 464.064 228.593C464.164 229.531 464.064 230.478 463.773 231.375C462.681 235.228 458.533 237.925 455.04 239.289C450.859 240.883 440.915 240.217 440.915 240.217Z" fill="#1A1A60"/>
<path d="M438.654 215.055C438.545 215.055 439.298 208.222 439.397 207.796C440.488 202.851 445.597 193.965 451.252 193.474C452.192 193.418 453.134 193.56 454.016 193.892C454.897 194.223 455.7 194.737 456.37 195.399C457.04 196.061 457.564 196.857 457.906 197.734C458.249 198.612 458.403 199.552 458.358 200.493C458.358 204.499 455.083 208.2 452.005 210.438C448.424 213.036 438.654 215.055 438.654 215.055Z" fill="#1A1A60"/>
<path d="M425.097 326.095C425.196 326.095 424.104 319.305 424.006 318.89C422.641 314.011 417.129 305.387 411.463 305.168C410.52 305.158 409.585 305.346 408.719 305.721C407.854 306.096 407.077 306.649 406.439 307.344C405.802 308.039 405.318 308.861 405.019 309.756C404.721 310.65 404.614 311.598 404.706 312.537C404.957 316.532 408.396 320.069 411.55 322.154C415.24 324.61 425.086 326.095 425.097 326.095Z" fill="#1A1A60"/>
<path d="M428.088 295.726C428.197 295.726 426.08 289.176 425.905 288.761C423.809 284.144 417.052 276.459 411.419 277.103C410.486 277.236 409.591 277.564 408.793 278.067C407.995 278.569 407.311 279.233 406.787 280.017C406.263 280.8 405.91 281.686 405.751 282.615C405.591 283.544 405.63 284.497 405.863 285.41C406.714 289.318 410.655 292.298 414.083 293.881C418.122 295.748 428.077 295.726 428.088 295.726Z" fill="#1A1A60"/>
<path d="M434.857 267.104C434.955 267.104 432.848 260.554 432.674 260.15C430.589 255.533 423.831 247.848 418.199 248.492C417.266 248.624 416.371 248.951 415.572 249.451C414.774 249.952 414.09 250.615 413.565 251.398C413.039 252.181 412.685 253.065 412.524 253.994C412.363 254.922 412.4 255.874 412.631 256.788C413.494 260.707 417.424 263.676 420.862 265.27C424.89 267.126 434.846 267.104 434.857 267.104Z" fill="#1A1A60"/>
<path d="M439.801 240.468C439.91 240.468 437.793 233.918 437.618 233.503C435.522 228.897 428.776 221.212 423.132 221.856C422.199 221.988 421.305 222.315 420.507 222.816C419.709 223.316 419.025 223.98 418.501 224.763C417.976 225.546 417.623 226.43 417.464 227.359C417.304 228.288 417.343 229.239 417.576 230.152C418.427 234.071 422.368 237.04 425.807 238.623C429.835 240.49 439.801 240.468 439.801 240.468Z" fill="#1A1A60"/>
<path d="M438.447 215.874C438.556 215.874 435.74 209.575 435.511 209.193C432.923 204.827 425.369 197.939 419.835 199.205C418.922 199.439 418.068 199.863 417.33 200.449C416.591 201.035 415.985 201.771 415.55 202.607C415.115 203.444 414.862 204.363 414.807 205.304C414.751 206.245 414.895 207.187 415.228 208.069C416.505 211.857 420.741 214.389 424.332 215.579C428.546 216.987 438.447 215.874 438.447 215.874Z" fill="#1A1A60"/>
<path d="M432.489 194.107C432.576 194.107 432.98 187.263 432.958 186.826C432.663 181.761 429.137 172.155 423.646 170.725C422.728 170.513 421.775 170.496 420.85 170.677C419.925 170.857 419.049 171.23 418.278 171.772C417.506 172.314 416.858 173.012 416.374 173.82C415.89 174.629 415.582 175.531 415.47 176.467C414.859 180.429 417.457 184.621 420.088 187.383C423.177 190.527 432.478 194.096 432.489 194.107Z" fill="#1A1A60"/>
<path d="M426.952 363.516C426.952 363.516 426.592 360.623 426.156 355.601C425.719 350.58 425.217 343.397 424.988 334.762C424.868 330.396 424.824 325.767 424.911 320.811C424.911 318.323 425.042 315.834 425.14 313.17C425.228 311.882 425.326 310.583 425.413 309.262C425.501 307.941 425.719 306.588 425.861 305.234C426.609 299.723 427.654 294.257 428.994 288.86C430.337 283.347 431.865 277.812 433.36 272.289C434.856 266.765 436.33 261.242 437.487 255.751C438.664 250.389 439.455 244.95 439.855 239.475C440.136 234.35 439.961 229.21 439.332 224.116C438.815 219.499 438.023 214.917 436.963 210.394C436.002 206.213 434.878 202.436 433.852 199.107C432.825 195.777 431.767 192.917 430.893 190.57C429.114 185.876 427.902 183.278 427.902 183.278C427.902 183.278 429.168 185.854 431.046 190.505C431.985 192.83 433.066 195.679 434.201 198.987C435.336 202.294 436.515 206.06 437.563 210.241C438.742 214.732 439.657 219.288 440.303 223.886C441.054 229.032 441.347 234.234 441.176 239.431C440.885 244.981 440.202 250.504 439.135 255.958C438.043 261.525 436.733 267.115 435.347 272.682C433.961 278.249 432.509 283.827 431.297 289.285C430.094 294.624 429.183 300.025 428.568 305.463C428.459 306.784 428.262 308.039 428.219 309.371C428.175 310.703 428.088 312.002 428.022 313.29C428.022 315.779 427.946 318.355 427.968 320.79C427.968 325.691 428.131 330.319 428.35 334.588C428.754 343.135 429.441 350.242 429.954 355.197C430.468 360.153 430.904 362.948 430.904 362.948C430.942 363.207 430.929 363.47 430.865 363.724C430.801 363.978 430.688 364.216 430.532 364.426C430.376 364.636 430.18 364.813 429.955 364.947C429.731 365.081 429.482 365.17 429.223 365.208C428.964 365.246 428.701 365.232 428.447 365.168C428.193 365.104 427.955 364.991 427.745 364.835C427.535 364.679 427.358 364.483 427.224 364.259C427.09 364.034 427.001 363.785 426.963 363.527V363.516H426.952Z" fill="#1A1A60"/>
<path d="M414.813 352.239H442.028V357.872H439.659L434.746 388.612H422.106L417.182 357.872H414.813V352.239Z" fill="#1A1A60" stroke="#1A1A60" stroke-linecap="round" stroke-linejoin="round"/>
<path d="M235.496 372.794C235.496 372.794 234.557 378.329 235.245 379.573C235.933 380.818 237.035 382.455 237.035 382.455H245.703L246.172 379.781C247.367 381.107 248.834 382.161 250.473 382.87C252.776 383.689 255.003 382.87 257.7 383.078C259.981 383.252 265.341 383.078 265.341 383.078L265.188 380.185L249.545 373.177L243.945 368.81C243.945 368.81 239.033 373.242 235.496 372.794Z" fill="#1A1A60" stroke="#1A1A60" stroke-linecap="round" stroke-linejoin="round"/>
<path d="M170.937 372.794C170.937 372.794 172.422 377.303 171.876 378.536C171.33 379.77 170.435 382.455 170.435 382.455H161.779L161.014 379.781C159.961 381.114 158.601 382.173 157.052 382.87C154.869 383.689 152.511 382.87 149.847 383.077C147.587 383.252 142.206 383.077 142.206 383.077L142.053 380.185L156.932 373.176L162.837 369.902C162.837 369.902 167.444 373.242 170.937 372.794Z" fill="#1A1A60" stroke="#1A1A60" stroke-linecap="round" stroke-linejoin="round"/>
<path d="M240.168 159.972C240.168 159.972 243.749 206.322 244.993 228.482C246.237 250.642 246.816 260.696 246.958 276.295C247.1 291.895 247.788 322.722 247.788 334.304C247.8 346.128 247.03 357.939 245.484 369.662L235.016 375.24C235.016 375.24 231.632 345.504 230.267 334.85C229.034 325.211 224.525 285.989 222.484 273.861C220.442 261.733 211.142 219.564 211.142 219.564C211.142 219.564 198.73 263.807 195.521 281.481C192.311 299.154 180.238 339.009 177.651 348.703C175.064 358.396 170.937 372.773 170.937 372.773C169.482 373.2 167.954 373.319 166.451 373.122C165.776 373.069 165.125 372.851 164.554 372.488C163.983 372.124 163.51 371.626 163.176 371.037C163.176 371.037 166.222 342.022 167.477 327.918C169.038 310.452 169.529 287.266 171.429 277.562C173.328 267.857 173.263 249.267 175.468 236.79C176.723 229.705 183.109 161.926 183.109 161.926C183.109 161.926 218.521 176.259 240.168 159.972Z" fill="#1A1A60" stroke="#1A1A60" stroke-linecap="round" stroke-linejoin="round"/>
<path d="M245.484 369.662L237.33 376.277" stroke="white" stroke-width="0.5" stroke-linecap="round" stroke-linejoin="round"/>
<path d="M162.849 369.88L169.322 374.847" stroke="white" stroke-width="0.5" stroke-linecap="round" stroke-linejoin="round"/>
<path d="M216.49 175.572L215.835 202.6L220.42 198.026" stroke="white" stroke-width="0.5" stroke-linecap="round" stroke-linejoin="round"/>
<path d="M213.631 218.778L226.654 202.578" stroke="white" stroke-width="0.5" stroke-linecap="round" stroke-linejoin="round"/>
<path d="M230.266 203.757L219.405 214.411" stroke="white" stroke-width="0.5" stroke-linecap="round" stroke-linejoin="round"/>
<path d="M205.88 204.947C202.52 197.508 196.777 191.401 189.56 187.59" stroke="white" stroke-width="0.5" stroke-linecap="round" stroke-linejoin="round"/>
<path d="M222.441 168.258L221.818 171.423L216.753 172.602L217.332 168.661" stroke="white" stroke-width="0.5" stroke-linecap="round" stroke-linejoin="round"/>
<path d="M216.752 172.602C216.752 172.602 207.266 172.209 202.452 170.626L203.467 167.472" stroke="white" stroke-width="0.5" stroke-linecap="round" stroke-linejoin="round"/>
<path d="M199.08 166.686L198.119 170.626C198.119 170.626 190.598 170.233 189.386 169.054" stroke="white" stroke-width="0.5" stroke-linecap="round" stroke-linejoin="round"/>
<path d="M221.818 171.391C224.4 171.314 226.929 170.642 229.208 169.426L232.647 167.45L231.315 164.688" stroke="white" stroke-width="0.5" stroke-linecap="round" stroke-linejoin="round"/>
<path d="M244.841 69.2693C244.841 69.2693 251.696 75.2186 253.748 79.1485C255.801 83.0783 282.742 138.009 282.633 141.764C282.523 145.519 278.539 152.68 271.509 152.68C264.479 152.68 237.833 109.867 237.833 109.867L244.841 69.2693Z" fill="white"/>
<g style="mix-blend-mode:multiply" opacity="0.5">
<path d="M245.68 75.8625L246.138 76.1136C246.946 76.583 248.758 77.6419 250.745 78.9627C252.99 80.6848 255.036 82.6508 256.847 84.8247C256.847 84.8247 254.38 78.275 250.767 75.142C248.757 73.4156 246.888 71.5321 245.178 69.5093L245.68 75.8625Z" fill="#2D68FF"/>
</g>
<path d="M244.841 69.2693C244.841 69.2693 251.696 75.2186 253.748 79.1485C255.801 83.0783 282.742 138.009 282.633 141.764C282.523 145.519 278.539 152.68 271.509 152.68C264.479 152.68 237.833 109.867 237.833 109.867L244.841 69.2693Z" stroke="#1A1A60" stroke-linecap="round" stroke-linejoin="round"/>
<path opacity="0.5" d="M262.012 126.71C261.105 125.619 254.37 114.779 253.682 110.729C252.995 106.679 254.774 101.494 254.774 98.7867C254.774 96.0795 250.495 103.513 250.266 102.618C250.036 101.723 247.34 92.0295 247.34 92.0295L239.077 102.717L237.843 109.888C237.843 109.888 248.279 126.645 257.82 139.188C264.61 137.004 274.86 133.675 277.065 132.343C280.482 130.324 262.918 127.846 262.012 126.71Z" fill="#2D68FF"/>
<path d="M211.929 61.8462L244.885 69.2692C244.885 69.2692 247.177 86.1566 246.915 95.2826C246.653 104.409 239.864 160.845 239.864 160.845C239.864 160.845 222.398 178.661 183.187 161.937C183.187 161.937 181.822 159.306 181.309 139.635C180.818 120.237 166.234 84.2135 167.402 80.109C169.803 71.6926 198.644 63.6037 202.432 63.3745C205.627 63.0707 208.8 62.5602 211.929 61.8462Z" fill="white" stroke="#1A1A60" stroke-linecap="round" stroke-linejoin="round"/>
<g style="mix-blend-mode:multiply" opacity="0.5">
<path d="M214.907 160.747L184.724 148.914L189.942 91.582L224.273 107.651L244.85 98.3938L230.135 158.226L214.907 160.747Z" fill="#2D68FF"/>
</g>
<g style="mix-blend-mode:multiply" opacity="0.5">
<path d="M223.838 71.7472C225.246 71.7472 238.269 74.3562 245.67 75.8626C245.245 71.9983 244.873 69.3129 244.873 69.3129L211.917 61.8899C208.788 62.6076 205.616 63.1217 202.42 63.4291C198.632 63.6583 169.792 71.7472 167.39 80.1636C167.008 81.5281 168.34 86.3749 170.316 92.9574C173.198 85.5235 175.774 79.3995 176.658 78.5371C178.645 76.5504 198.49 71.3979 198.49 71.3979L223.838 71.7472Z" fill="#2D68FF"/>
</g>
<path d="M220.88 78.7009L216.35 88.8312L226.284 159.022L219.003 168.847L212.093 160.834L214.025 89.7263L204.877 79.0502L210.728 67.9812L220.88 78.7009Z" fill="#1A1A60"/>
<path d="M255.974 101.385L229.568 116.034L195.608 98.2627L190.226 148.423L223.859 164.633L249.326 149.307L255.974 101.385Z" fill="#FF2D9E" stroke="#1A1A60" stroke-linecap="round" stroke-linejoin="round"/>
<path d="M228.564 127.3L229.568 119.244" stroke="#1A1A60" stroke-width="0.5" stroke-linecap="round" stroke-linejoin="round"/>
<path d="M223.86 164.634L228.008 131.721" stroke="#1A1A60" stroke-width="0.5" stroke-linecap="round" stroke-linejoin="round"/>
<path d="M214.995 59.0297C214.995 59.0297 220.945 59.0297 223.532 62.9595C226.119 66.8894 231.086 82.4231 231.086 82.4231L213.183 77.3908L202.333 88.6017C202.333 88.6017 192.388 73.8648 196.438 64.5096C200.488 55.1544 214.995 59.0297 214.995 59.0297Z" fill="white" stroke="#1A1A60" stroke-linecap="round" stroke-linejoin="round"/>
<g style="mix-blend-mode:multiply" opacity="0.5">
<path d="M225.344 66.5947C224.832 65.3395 224.226 64.1244 223.532 62.9596C220.945 58.9752 214.995 59.0298 214.995 59.0298C214.995 59.0298 200.51 55.1545 196.438 64.4879C195.128 67.5117 195.346 71.1031 196.1 74.5745C196.809 72.7187 198.414 68.9963 200.466 66.9331C203.239 64.1604 203.566 66.5729 203.566 66.5729L219.089 65.3394C221.145 65.8909 223.234 66.3102 225.344 66.5947Z" fill="#2D68FF"/>
</g>
<path d="M217.55 49.9912C217.55 49.9912 218.554 70.6447 215.945 74.7164C213.336 78.7882 210.367 77.2272 208.194 74.7164C206.022 72.2057 203.566 66.5948 203.566 66.5948L200.913 51.3121C200.913 51.3121 216.371 54.1612 217.55 49.9912Z" fill="white" stroke="#1A1A60" stroke-linecap="round" stroke-linejoin="round"/>
<g style="mix-blend-mode:multiply" opacity="0.5">
<path d="M211.95 66.5949C214.198 65.9508 216.195 64.6325 217.67 62.8179C217.67 61.6499 217.67 60.4928 217.67 59.3684C215.127 56.4538 209.286 50.952 202.78 52.7204C202.224 52.8733 201.689 53.0479 201.198 53.2226L203.555 66.5949C203.555 66.5949 206.022 72.2495 208.184 74.7166L206.001 64.9684C206.762 65.7378 207.713 66.2932 208.757 66.5787C209.802 66.8643 210.903 66.8698 211.95 66.5949Z" fill="#2D68FF"/>
</g>
<path d="M226.654 31.2045C226.654 31.2045 229.645 30.9862 229.71 35.9749C229.776 40.9636 226.839 45.1554 224.82 43.4197C222.8 41.6841 226.097 28.9339 226.654 31.2045Z" fill="white" stroke="#1A1A60" stroke-linecap="round" stroke-linejoin="round"/>
<path d="M206.121 5.37677C192.509 8.58614 188.863 17.3846 188.972 25.3534C188.972 28.3991 190.38 33.6716 192.247 39.2279L192.006 38.7258C192.006 38.7258 187.913 31.5866 187.312 35.8767C186.712 40.1667 190.762 44.6096 192.105 46.0397C192.477 46.3829 192.958 46.5858 193.464 46.6137C193.969 46.6416 194.469 46.4927 194.877 46.1925C197.585 52.7422 200.608 58.6042 202.584 60.198C206.863 63.6584 212.878 65.4378 217.66 61.2896C222.441 57.1414 227.168 33.486 227.168 33.486C228.303 9.55768 219.734 2.18924 206.121 5.37677Z" fill="white"/>
<g style="mix-blend-mode:multiply" opacity="0.5">
<path d="M198.873 30.5716C198.873 30.5716 203.621 26.609 208.381 26.609C213.14 26.609 223.052 30.9755 224.231 34.5342C224.952 36.7174 224.1 43.7584 223.303 49.1073C225.596 41.5751 227.211 33.5189 227.211 33.5189C228.303 9.60153 219.723 2.21125 206.121 5.42062C192.52 8.62999 188.863 17.4285 188.972 25.3973C188.972 28.4429 190.38 33.7154 192.247 39.2718L192.006 38.7696C192.006 38.7696 187.913 31.6304 187.312 35.9205C186.712 40.2106 190.762 44.6535 192.105 46.0835C192.477 46.4267 192.958 46.6297 193.464 46.6576C193.969 46.6854 194.469 46.5365 194.877 46.2363C197.585 52.7861 200.608 58.6481 202.584 60.2418C202.584 60.2418 198.032 49.9915 196.449 45.6359C194.866 41.2804 195.303 33.7045 198.873 30.5716Z" fill="#2D68FF"/>
</g>
<path d="M206.121 5.37677C192.509 8.58614 188.863 17.3846 188.972 25.3534C188.972 28.3991 190.38 33.6716 192.247 39.2279L192.006 38.7258C192.006 38.7258 187.913 31.5866 187.312 35.8767C186.712 40.1667 190.762 44.6096 192.105 46.0397C192.477 46.3829 192.958 46.5858 193.464 46.6137C193.969 46.6416 194.469 46.4927 194.877 46.1925C197.585 52.7422 200.608 58.6042 202.584 60.198C206.863 63.6584 212.878 65.4378 217.66 61.2896C222.441 57.1414 227.168 33.486 227.168 33.486C228.303 9.55768 219.734 2.18924 206.121 5.37677Z" stroke="#1A1A60" stroke-linecap="round" stroke-linejoin="round"/>
<path d="M222.123 40.4504C221.442 41.4755 220.385 42.1918 219.18 42.445C217.975 42.6982 216.719 42.468 215.683 41.804" stroke="#1A1A60" stroke-linecap="round" stroke-linejoin="round"/>
<path d="M207.593 41.8916C206.912 42.9167 205.855 43.633 204.65 43.8862C203.445 44.1394 202.189 43.9092 201.153 43.2452" stroke="#1A1A60" stroke-linecap="round" stroke-linejoin="round"/>
<path d="M208.292 38.5948C206.533 37.7119 204.628 37.1535 202.67 36.9465C200.072 36.8373 197.518 38.9551 197.518 38.9551" stroke="#1A1A60" stroke-linecap="round" stroke-linejoin="round"/>
<path d="M214.559 49.6201C214.467 50.2835 214.117 50.884 213.586 51.2923C213.056 51.7007 212.386 51.8842 211.721 51.8034C211.026 51.8244 210.34 51.6531 209.737 51.3082C209.134 50.9634 208.638 50.4585 208.304 49.8494" stroke="#1A1A60" stroke-linecap="round" stroke-linejoin="round"/>
<path d="M216.851 54.8928C216.851 54.8928 210.476 56.7922 206.383 55.1439C206.918 56.1054 207.649 56.9434 208.529 57.6036C209.409 58.2637 210.419 58.7312 211.492 58.9755C213.915 59.6195 216.851 54.8928 216.851 54.8928Z" fill="#1A1A60"/>
<path d="M222.921 35.7238C222.921 35.7238 220.53 35.5164 218.27 35.5382C216.196 35.5382 214.133 38.2345 214.133 38.2345L213.402 41.5094" stroke="#1A1A60" stroke-linecap="round" stroke-linejoin="round"/>
<path d="M203.25 23.9452C208.2 28.0909 213.61 31.6547 219.373 34.5667C228.761 39.2607 235.965 30.2002 231.566 25.7464C227.167 21.2926 237.297 30.6369 238.891 25.0478C240.485 19.4587 225.901 0.278871 211.251 0.00596601C196.602 -0.266939 193.054 8.9136 193.054 8.9136C193.054 8.9136 191.329 4.18688 190.03 6.79585C189.275 8.21577 188.842 9.78509 188.764 11.3916C188.764 11.3916 185.795 13.5748 184.485 14.8738C183.175 16.1729 184.856 17.5483 184.856 17.5483C184.856 17.5483 182.236 24.098 183.633 29.1522L191.154 40.0685C192.062 40.0391 192.95 39.8013 193.751 39.3734C194.552 38.9456 195.243 38.3393 195.772 37.6014C197.737 35.0252 196.296 26.9908 196.296 26.9908C196.296 26.9908 196.416 35.6365 198.719 33.7371C201.023 31.8376 197.628 23.3885 197.628 23.3885L203.25 23.9452Z" fill="#1A1A60"/>
<path d="M196.711 15.0159C196.711 15.0159 203.414 20.0592 208.261 24.6658C213.107 29.2724 220.498 31.0409 222.692 30.0257" stroke="white" stroke-width="0.5" stroke-miterlimit="10" stroke-linecap="round"/>
<path d="M217.419 21.3582C217.419 21.3582 207.813 19.175 205.553 15.005C203.293 10.835 196.296 11.3262 196.296 11.3262C198.044 9.71438 200.177 8.57871 202.49 8.02818C204.803 7.47766 207.218 7.53075 209.505 8.18237" stroke="white" stroke-width="0.5" stroke-miterlimit="10" stroke-linecap="round"/>
<path d="M193.065 17.0786C193.065 17.0786 200.575 28.3987 195.837 31.881" stroke="white" stroke-width="0.5" stroke-miterlimit="10" stroke-linecap="round"/>
<path d="M167.399 80.1199C167.399 80.1199 147.019 135.683 147.957 141.884C148.896 148.084 159.594 145.617 162.967 144.777C166.34 143.936 179.342 123.304 179.429 118.862C180.269 118.336 180.987 117.638 181.537 116.814C182.087 115.989 182.455 115.058 182.616 114.08C183.413 110.5 183.959 97.7059 178.785 88.1105" fill="white"/>
<g style="mix-blend-mode:multiply" opacity="0.5">
<path d="M167.4 80.1201C167.4 80.1201 147.02 135.684 147.958 141.884C148.482 145.279 151.932 146.065 155.491 145.956C157.98 138.937 158.951 126.11 160.818 119.757C162.881 112.65 169.605 94.2566 173.699 84.5848L167.4 80.1201Z" fill="#2D68FF"/>
</g>
<path d="M167.399 80.1199C167.399 80.1199 147.019 135.683 147.957 141.884C148.896 148.084 159.594 145.617 162.967 144.777C166.34 143.936 179.342 123.304 179.429 118.862C180.269 118.336 180.987 117.638 181.537 116.814C182.087 115.989 182.455 115.058 182.616 114.08C183.413 110.5 183.959 97.7059 178.785 88.1105" stroke="#1A1A60" stroke-linecap="round" stroke-linejoin="round"/>
<path d="M182.804 136.808C182.804 136.808 156.605 135.214 153.243 134.941C149.881 134.668 145.852 139.308 149.018 145.727C152.184 152.145 157.216 152.516 163.395 151.348C169.573 150.18 183.219 141.851 183.219 141.851L182.804 136.808Z" fill="white"/>
<path opacity="0.5" d="M182.803 136.808C182.803 136.808 156.604 135.214 153.242 134.941C149.88 134.668 145.851 139.308 149.017 145.726C152.183 152.145 157.215 152.516 163.394 151.348C169.572 150.18 183.218 141.851 183.218 141.851L182.803 136.808Z" fill="#2D68FF" stroke="#1A1A60" stroke-linecap="round" stroke-linejoin="round"/>
<path d="M182.804 136.808C182.804 136.808 156.605 135.214 153.243 134.941C149.881 134.668 145.852 139.308 149.018 145.727C152.184 152.145 157.216 152.516 163.395 151.348C169.573 150.18 183.219 141.851 183.219 141.851L182.804 136.808Z" stroke="#1A1A60" stroke-linecap="round" stroke-linejoin="round"/>
<path d="M186.984 130.422C186.984 130.422 190.368 126.83 191.263 126.907C192.158 126.983 198.729 126.623 199.286 128.162C199.843 129.701 198.959 129.024 198.053 129.538C197.147 130.051 192.649 130.629 192.649 130.629C192.649 130.629 196.524 130.946 197.692 131.633C198.86 132.321 203.805 136.884 203.784 137.779C203.762 138.674 203.161 138.871 201.961 138.871C200.76 138.871 201.644 139.733 201.317 140.596C200.989 141.458 198.62 141.272 198.62 141.272C198.62 141.272 198.828 144.263 197.037 144.111C195.247 143.958 192.038 141.622 192.038 141.622C192.038 141.622 185.412 144.045 183.032 143.86C181.469 143.789 179.916 144.14 178.534 144.875C180.536 139.625 183.39 134.741 186.984 130.422Z" fill="white"/>
<g style="mix-blend-mode:multiply" opacity="0.5">
<path d="M186.985 130.421C183.401 134.711 180.546 139.561 178.535 144.776C179.917 144.041 181.47 143.691 183.033 143.761C183.815 143.774 184.596 143.69 185.358 143.51C185.832 141.423 186.114 139.296 186.199 137.157C186.199 133.98 191.264 126.906 191.264 126.906C190.358 126.83 186.985 130.421 186.985 130.421Z" fill="#2D68FF"/>
</g>
<path d="M186.984 130.422C186.984 130.422 190.368 126.83 191.263 126.907C192.158 126.983 198.729 126.623 199.286 128.162C199.843 129.701 198.959 129.024 198.053 129.538C197.147 130.051 192.649 130.629 192.649 130.629C192.649 130.629 196.524 130.946 197.692 131.633C198.86 132.321 203.805 136.884 203.784 137.779C203.762 138.674 203.161 138.871 201.961 138.871C200.76 138.871 201.644 139.733 201.317 140.596C200.989 141.458 198.62 141.272 198.62 141.272C198.62 141.272 198.828 144.263 197.037 144.111C195.247 143.958 192.038 141.622 192.038 141.622C192.038 141.622 185.412 144.045 183.032 143.86C181.469 143.789 179.916 144.14 178.534 144.875C180.536 139.625 183.39 134.741 186.984 130.422Z" stroke="#1A1A60" stroke-linecap="round" stroke-linejoin="round"/>
<path d="M201.96 138.772L196.12 134.133L191.361 133.445" stroke="#1A1A60" stroke-linecap="round" stroke-linejoin="round"/>
<path d="M198.61 141.175L192.136 137.67L189.167 137.135" stroke="#1A1A60" stroke-linecap="round" stroke-linejoin="round"/>
<path d="M258.726 126.001C258.726 126.001 255.342 122.42 254.447 122.486C253.552 122.551 246.98 122.213 246.424 123.741C245.867 125.269 246.751 124.603 247.657 125.127C249.423 125.638 251.231 125.985 253.061 126.165C253.061 126.165 249.185 126.481 248.017 127.18C246.849 127.878 241.904 132.43 241.926 133.315C241.948 134.199 242.548 134.406 243.749 134.406C244.95 134.406 244.066 135.269 244.393 136.131C244.721 136.993 247.089 136.797 247.089 136.797C247.089 136.797 246.882 139.788 248.672 139.646C250.463 139.504 253.672 137.157 253.672 137.157C253.672 137.157 260.298 139.581 262.678 139.34C264.242 139.268 265.797 139.622 267.175 140.367C265.166 135.147 262.312 130.293 258.726 126.001Z" fill="white" stroke="#1A1A60" stroke-linecap="round" stroke-linejoin="round"/>
<path d="M243.748 134.352L249.578 129.723L254.337 129.036" stroke="#1A1A60" stroke-linecap="round" stroke-linejoin="round"/>
<path d="M247.089 136.753L253.562 133.26L256.532 132.714" stroke="#1A1A60" stroke-linecap="round" stroke-linejoin="round"/>
<path d="M262.622 131.437C262.622 131.437 273.855 130.149 277.708 133.042C281.562 135.935 280.918 143.303 280.918 143.303" stroke="#1A1A60" stroke-linecap="round" stroke-linejoin="round"/>
<path d="M173.885 368.974C173.885 368.974 175.085 366.583 178.917 367.063C182.748 367.544 185.15 372.096 182.508 373.526C179.867 374.956 173.885 368.974 173.885 368.974Z" fill="#2D68FF" stroke="#1A1A60" stroke-linecap="round" stroke-linejoin="round"/>
<path d="M179.55 257.803C179.55 257.803 188.567 259.615 192.901 262.497C197.234 265.379 197.944 266.099 199.025 271.874C200.105 277.649 196.143 293.15 196.143 301.086C196.143 309.022 190.368 357.348 190.368 361.332C190.368 365.317 194.341 373.591 193.981 376.473C193.828 378.545 194.073 380.628 194.702 382.608C194.702 382.608 197.223 384.409 193.981 384.791C190.739 385.173 190.368 385.512 187.486 384.071C184.604 382.63 183.12 375.414 180.631 373.253C178.142 371.091 176.668 368.57 176.668 366.758C176.668 364.946 182.432 358.112 182.432 358.112C182.432 358.112 181.711 348.014 181.34 339.358C180.969 330.701 176.974 311.587 176.974 303.334C176.974 295.082 182.432 275.564 182.432 275.564C182.432 275.564 168.426 277.277 162.968 273.675C157.51 270.073 163.689 254.201 179.55 257.803Z" fill="white" stroke="#1A1A60" stroke-linecap="round" stroke-linejoin="round"/>
<path d="M180.631 373.209C180.631 373.209 174.081 367.587 173.884 369.017C173.688 370.447 173.644 381.724 174.124 382.914C174.605 384.104 187.541 385.315 194.254 386.516C200.967 387.717 198.326 383.394 196.885 382.433C195.444 381.473 180.631 373.209 180.631 373.209Z" fill="#2D68FF" stroke="#1A1A60" stroke-linecap="round" stroke-linejoin="round"/>
<path opacity="0.2" d="M180.631 373.209C180.631 373.209 174.081 367.587 173.884 369.017C173.688 370.447 173.644 381.724 174.124 382.914C174.605 384.104 187.541 385.315 194.254 386.516C200.967 387.717 198.326 383.394 196.885 382.433C195.444 381.473 180.631 373.209 180.631 373.209Z" fill="black"/>
<path d="M182.508 379.562C183.819 377.991 185.353 376.619 187.06 375.491C189.088 374.05 191.364 372.996 193.773 372.379L196.884 378.361C194.739 378.868 192.654 379.6 190.662 380.545C189.151 381.46 187.78 382.589 186.59 383.896C186.59 383.896 182.988 381.484 182.508 379.562Z" fill="#1A1A60" stroke="#1A1A60" stroke-linecap="round" stroke-linejoin="round"/>
<path d="M188.982 372.86C188.679 372.898 188.387 372.997 188.124 373.152C187.861 373.307 187.633 373.514 187.453 373.76C187.273 374.007 187.145 374.287 187.078 374.585C187.01 374.882 187.004 375.191 187.06 375.49C187.301 377.892 187.541 385.555 188.501 385.795C189.462 386.035 201.437 387.979 205.749 388.186C210.061 388.393 214.853 388.426 214.853 386.276C214.853 384.125 214.133 383.165 213.183 383.165C212.233 383.165 210.061 382.444 207.19 380.774C204.319 379.104 197.365 372.63 195.182 372.39C192.999 372.15 190.182 370.698 188.982 372.86Z" fill="#2D68FF" stroke="#1A1A60" stroke-linecap="round" stroke-linejoin="round"/>
<path opacity="0.2" d="M188.982 372.86C188.679 372.898 188.387 372.997 188.124 373.152C187.861 373.307 187.633 373.514 187.453 373.76C187.273 374.007 187.145 374.287 187.078 374.585C187.01 374.882 187.004 375.191 187.06 375.49C187.301 377.892 187.541 385.555 188.501 385.795C189.462 386.035 201.437 387.979 205.749 388.186C210.061 388.393 214.853 388.426 214.853 386.276C214.853 384.125 214.133 383.165 213.183 383.165C212.233 383.165 210.061 382.444 207.19 380.774C204.319 379.104 197.365 372.63 195.182 372.39C192.999 372.15 190.182 370.698 188.982 372.86Z" fill="black"/>
<path d="M88.5302 383.165C88.5302 382.085 88.2101 381.03 87.6104 380.133C87.0106 379.235 86.1582 378.535 85.1608 378.122C84.1635 377.709 83.0661 377.601 82.0073 377.812C80.9485 378.022 79.976 378.542 79.2127 379.305C78.4493 380.069 77.9295 381.041 77.7189 382.1C77.5083 383.159 77.6164 384.256 78.0295 385.254C78.4426 386.251 79.1422 387.103 80.0398 387.703C80.9373 388.303 81.9926 388.623 83.0721 388.623C84.5197 388.623 85.908 388.048 86.9316 387.024C87.9552 386.001 88.5302 384.612 88.5302 383.165Z" fill="#1A1A60" stroke="#1A1A60" stroke-linecap="round" stroke-linejoin="round"/>
<path d="M83.073 385.883C84.5803 385.883 85.8021 384.661 85.8021 383.154C85.8021 381.646 84.5803 380.425 83.073 380.425C81.5658 380.425 80.344 381.646 80.344 383.154C80.344 384.661 81.5658 385.883 83.073 385.883Z" fill="white" stroke="#1A1A60" stroke-linecap="round" stroke-linejoin="round"/>
<path d="M147.019 383.165C147.019 382.085 146.699 381.03 146.099 380.133C145.499 379.235 144.647 378.535 143.649 378.122C142.652 377.709 141.555 377.601 140.496 377.812C139.437 378.022 138.465 378.542 137.701 379.305C136.938 380.069 136.418 381.041 136.207 382.1C135.997 383.159 136.105 384.256 136.518 385.254C136.931 386.251 137.631 387.103 138.528 387.703C139.426 388.303 140.481 388.623 141.561 388.623C143.008 388.623 144.397 388.048 145.42 387.024C146.444 386.001 147.019 384.612 147.019 383.165Z" fill="#1A1A60" stroke="#1A1A60" stroke-linecap="round" stroke-linejoin="round"/>
<path d="M144.29 383.165C144.29 382.625 144.13 382.097 143.83 381.649C143.53 381.2 143.104 380.85 142.605 380.644C142.107 380.437 141.558 380.383 141.029 380.488C140.499 380.594 140.013 380.853 139.631 381.235C139.25 381.617 138.99 382.103 138.884 382.632C138.779 383.162 138.833 383.711 139.04 384.209C139.246 384.708 139.596 385.134 140.045 385.434C140.494 385.734 141.021 385.894 141.561 385.894C142.285 385.894 142.979 385.606 143.491 385.095C144.003 384.583 144.29 383.889 144.29 383.165Z" fill="white" stroke="#1A1A60" stroke-linecap="round" stroke-linejoin="round"/>
<path d="M166.135 383.165C166.135 382.085 165.815 381.03 165.215 380.133C164.615 379.235 163.763 378.535 162.766 378.122C161.768 377.709 160.671 377.601 159.612 377.812C158.553 378.022 157.581 378.542 156.817 379.305C156.054 380.069 155.534 381.041 155.324 382.1C155.113 383.159 155.221 384.256 155.634 385.254C156.047 386.251 156.747 387.103 157.644 387.703C158.542 388.303 159.597 388.623 160.677 388.623C162.124 388.623 163.513 388.048 164.536 387.024C165.56 386.001 166.135 384.612 166.135 383.165Z" fill="#1A1A60" stroke="#1A1A60" stroke-linecap="round" stroke-linejoin="round"/>
<path d="M163.405 383.165C163.407 382.622 163.248 382.091 162.948 381.638C162.647 381.186 162.219 380.833 161.718 380.624C161.217 380.416 160.665 380.361 160.133 380.466C159.6 380.571 159.111 380.832 158.727 381.216C158.343 381.6 158.082 382.089 157.977 382.622C157.872 383.154 157.927 383.706 158.135 384.207C158.344 384.708 158.697 385.136 159.149 385.436C159.602 385.737 160.133 385.896 160.676 385.894C161.399 385.894 162.094 385.606 162.605 385.094C163.117 384.583 163.405 383.888 163.405 383.165Z" fill="white" stroke="#1A1A60" stroke-linecap="round" stroke-linejoin="round"/>
<path d="M133.091 289.46H121.542V376.91H133.091V289.46Z" fill="#1A1A60" stroke="#1A1A60" stroke-linecap="round" stroke-linejoin="round"/>
<path d="M136.18 335.155H118.474V376.91H136.18V335.155Z" fill="#1A1A60" stroke="#1A1A60" stroke-linecap="round" stroke-linejoin="round"/>
<path d="M81.9475 375.261H163.524C164.682 375.261 165.793 375.722 166.612 376.54C167.431 377.359 167.891 378.47 167.891 379.628V380.207H77.5811V379.628C77.5811 378.47 78.0411 377.359 78.86 376.54C79.6788 375.722 80.7895 375.261 81.9475 375.261Z" fill="#1A1A60" stroke="#1A1A60" stroke-linecap="round" stroke-linejoin="round"/>
<path d="M115.527 255.641H100.681V279.57H115.527V255.641Z" fill="#1A1A60" stroke="#1A1A60" stroke-linecap="round" stroke-linejoin="round"/>
<path d="M175.413 276.262H79.2194C74.8002 276.262 71.2178 279.845 71.2178 284.264V286.414C71.2178 290.833 74.8002 294.416 79.2194 294.416H175.413C179.832 294.416 183.415 290.833 183.415 286.414V284.264C183.415 279.845 179.832 276.262 175.413 276.262Z" fill="#2D68FF" stroke="#1A1A60" stroke-linecap="round" stroke-linejoin="round"/>
<path opacity="0.1" d="M175.413 276.262H79.2194C74.8002 276.262 71.2178 279.845 71.2178 284.264V286.414C71.2178 290.833 74.8002 294.416 79.2194 294.416H175.413C179.832 294.416 183.415 290.833 183.415 286.414V284.264C183.415 279.845 179.832 276.262 175.413 276.262Z" fill="black"/>
<path d="M183.414 285.333C183.414 282.928 182.459 280.62 180.758 278.919C179.056 277.218 176.749 276.262 174.343 276.262H124.849C123.631 276.22 122.416 276.423 121.278 276.86C120.14 277.298 119.101 277.959 118.224 278.806C117.347 279.653 116.65 280.668 116.174 281.791C115.697 282.913 115.452 284.12 115.452 285.339C115.452 286.558 115.697 287.765 116.174 288.887C116.65 290.009 117.347 291.024 118.224 291.871C119.101 292.718 120.14 293.38 121.278 293.817C122.416 294.254 123.631 294.458 124.849 294.416H174.343C176.75 294.413 179.057 293.455 180.758 291.752C182.459 290.049 183.414 287.74 183.414 285.333Z" fill="#2D68FF" stroke="#1A1A60" stroke-miterlimit="10"/>
<path opacity="0.1" d="M183.414 285.617C183.414 284.426 183.18 283.246 182.724 282.146C182.268 281.045 181.6 280.045 180.758 279.203C179.915 278.361 178.915 277.692 177.815 277.237C176.714 276.781 175.534 276.546 174.343 276.546H124.849C123.631 276.504 122.416 276.707 121.278 277.144C120.14 277.581 119.101 278.243 118.224 279.09C117.347 279.937 116.65 280.952 116.174 282.075C115.697 283.197 115.452 284.404 115.452 285.623C115.452 286.842 115.697 288.049 116.174 289.171C116.65 290.293 117.347 291.308 118.224 292.155C119.101 293.002 120.14 293.664 121.278 294.101C122.416 294.538 123.631 294.742 124.849 294.7H174.343C175.535 294.7 176.716 294.465 177.817 294.008C178.918 293.552 179.919 292.882 180.761 292.039C181.604 291.195 182.272 290.194 182.727 289.092C183.182 287.99 183.416 286.81 183.414 285.617Z" fill="black"/>
<path d="M137.348 255.653H79.492C78.1394 255.653 76.8003 255.383 75.5539 254.857C74.3074 254.332 73.1788 253.562 72.2346 252.594C71.2904 251.625 70.5498 250.477 70.0564 249.218C69.563 247.958 69.3268 246.613 69.3618 245.261L70.7918 188.856C70.8546 186.213 71.9499 183.698 73.8432 181.852C75.7365 180.006 78.2774 178.974 80.922 178.977H128.659C131.081 178.973 133.424 179.838 135.263 181.414C137.102 182.99 138.314 185.174 138.68 187.568L147.358 244.016C147.575 245.457 147.478 246.928 147.075 248.328C146.671 249.728 145.97 251.024 145.02 252.129C144.07 253.233 142.893 254.12 141.569 254.728C140.245 255.336 138.805 255.652 137.348 255.653Z" fill="#2D68FF" stroke="#1A1A60" stroke-linecap="round" stroke-linejoin="round"/>
<path opacity="0.1" d="M137.348 255.653H79.492C78.1394 255.653 76.8003 255.383 75.5539 254.857C74.3074 254.332 73.1788 253.562 72.2346 252.594C71.2904 251.625 70.5498 250.477 70.0564 249.218C69.563 247.958 69.3268 246.613 69.3618 245.261L70.7918 188.856C70.8546 186.213 71.9499 183.698 73.8432 181.852C75.7365 180.006 78.2774 178.974 80.922 178.977H128.659C131.081 178.973 133.424 179.838 135.263 181.414C137.102 182.99 138.314 185.174 138.68 187.568L147.358 244.016C147.575 245.457 147.478 246.928 147.075 248.328C146.671 249.728 145.97 251.024 145.02 252.129C144.07 253.233 142.893 254.12 141.569 254.728C140.245 255.336 138.805 255.652 137.348 255.653Z" fill="black"/>
<path d="M118.451 291.523L93.082 308.225" stroke="#1A1A60" stroke-linecap="round" stroke-linejoin="round"/>
<path d="M92.1217 305.66L87.7552 308.596C87.4133 308.829 87.1272 309.135 86.9175 309.492C86.7077 309.848 86.5794 310.247 86.5419 310.659C86.5043 311.071 86.5584 311.487 86.7002 311.875C86.842 312.264 87.0681 312.617 87.3623 312.908L87.7334 313.257C88.2239 313.74 88.8758 314.023 89.5632 314.054C90.2506 314.084 90.9248 313.859 91.4558 313.421L95.4512 310.146C95.7477 309.901 95.9904 309.597 96.164 309.253C96.3375 308.909 96.4382 308.534 96.4597 308.149C96.4813 307.765 96.4231 307.38 96.289 307.02C96.1549 306.659 95.9477 306.329 95.6804 306.052C95.2282 305.579 94.6235 305.28 93.9726 305.208C93.3218 305.136 92.6664 305.296 92.1217 305.66Z" fill="#1A1A60" stroke="#1A1A60" stroke-linecap="round" stroke-linejoin="round"/>
<path d="M122.413 375.261H147.444C148.602 375.261 149.713 375.722 150.532 376.54C151.35 377.359 151.81 378.47 151.81 379.628V380.207H122.413V375.261Z" fill="#1A1A60" stroke="#1A1A60" stroke-linecap="round" stroke-linejoin="round"/>
<path d="M142.456 226.582C147.394 226.582 151.396 224.305 151.396 221.495C151.396 218.686 147.394 216.408 142.456 216.408C137.518 216.408 133.516 218.686 133.516 221.495C133.516 224.305 137.518 226.582 142.456 226.582Z" fill="white" stroke="#1A1A60" stroke-linecap="round" stroke-linejoin="round"/>
<path d="M167.335 263.217C167.335 263.217 181.755 263.938 185.008 271.514C185.678 274.108 186.044 276.771 186.1 279.45C186.1 283.412 199.439 359.869 199.799 361.321C200.16 362.773 208.096 373.94 209.177 376.462C210.257 378.984 211.36 381.156 211.36 381.156C211.36 381.156 214.635 382.597 214.253 383.678C213.87 384.758 206.316 385.119 203.074 385.119C199.832 385.119 196.219 377.193 194.058 376.462C191.896 375.731 189.364 373.187 189.364 371.779C189.364 370.371 190.455 359.88 190.455 359.88C189.072 351.323 186.653 342.965 183.251 334.991C178.426 323.999 172.422 307.941 171.701 300.376C170.981 292.811 170.981 285.585 170.981 285.585L161.877 284.133C161.877 284.133 160.785 265.379 167.335 263.217Z" fill="white" stroke="#1A1A60" stroke-linecap="round" stroke-linejoin="round"/>
<path d="M196.645 380.043C196.645 380.043 199.526 368.308 206.949 372.86L210.061 378.122C210.061 378.122 203.118 378.122 200.956 384.835C199.901 384.45 198.956 383.811 198.204 382.976C197.452 382.14 196.917 381.133 196.645 380.043Z" fill="#1A1A60" stroke="#1A1A60" stroke-linecap="round" stroke-linejoin="round"/>
<path d="M137.49 241.32L137.14 241.374C133.865 228.035 129.444 214.4 129.444 214.4C129.444 214.4 107.754 220.131 95.2438 216.245C95.2438 216.245 88.8796 247.586 88.8796 255.773C88.8796 262.323 87.526 268.981 92.482 272.824C92.9613 273.53 93.5774 274.132 94.2937 274.595C95.0099 275.058 95.8119 275.373 96.652 275.52C110.177 278.064 133.483 277.18 137.369 277.955C141.256 278.73 161.876 284.133 161.876 284.133C161.876 284.133 163.11 272.758 166.603 265.379C170.096 258 186.045 259.255 186.045 259.255L137.49 241.32Z" fill="#1A1A60" stroke="#1A1A60" stroke-linecap="round" stroke-linejoin="round"/>
<path d="M132.478 153.924C132.478 153.924 129.487 150.169 126.256 154.306C123.025 158.444 125.59 172.809 127.184 178.551C128.778 184.293 155.697 208.112 158.23 209.881C160.762 211.649 193.762 219.105 196.644 217.74C199.526 216.376 200.355 209.466 198.718 205.733C197.08 201.999 166.242 194.074 166.242 194.074L132.478 153.924Z" fill="white"/>
<g style="mix-blend-mode:multiply" opacity="0.5">
<path d="M158.231 209.903C160.763 211.66 193.763 219.127 196.645 217.762C198.304 216.976 199.276 214.335 199.494 211.529C194.396 209.477 188.349 208.09 185.543 208.254C181.471 208.483 184.201 212.282 177.673 211.213C171.145 210.143 163.7 206.846 156.932 202.982C150.164 199.117 138.014 187.699 138.014 187.699L147.544 188.791L136.682 185.439L146.125 181.892L138.014 181.411C138.534 180.126 138.775 178.746 138.724 177.361C138.724 174.556 133.375 164.142 133.375 164.142L127.698 179.741C131.661 186.858 155.84 208.232 158.231 209.903Z" fill="#2D68FF"/>
</g>
<path d="M132.478 153.924C132.478 153.924 129.487 150.169 126.256 154.306C123.025 158.444 125.59 172.809 127.184 178.551C128.778 184.293 155.697 208.112 158.23 209.881C160.762 211.649 193.762 219.105 196.644 217.74C199.526 216.376 200.355 209.466 198.718 205.733C197.08 201.999 166.242 194.074 166.242 194.074L132.478 153.924Z" stroke="#1A1A60" stroke-linecap="round" stroke-linejoin="round"/>
<path d="M143.079 184.086L135.667 186.957L148.133 191.105" stroke="#1A1A60" stroke-width="0.5" stroke-linecap="round" stroke-linejoin="round"/>
<path d="M196.72 205.7C195.768 205.895 194.896 206.374 194.22 207.073C193.544 207.773 193.095 208.66 192.933 209.619C192.289 213.036 195.651 215.95 195.651 215.95C195.651 215.95 202.735 218.385 204.853 212.676C206.971 206.966 200.148 205.482 196.72 205.7Z" fill="white"/>
<g style="mix-blend-mode:multiply" opacity="0.5">
<path d="M195.652 215.951C195.652 215.951 201.699 218.014 204.286 213.855C200.733 211.877 196.934 210.375 192.988 209.39C192.965 209.465 192.947 209.542 192.934 209.619C192.289 213.036 195.652 215.951 195.652 215.951Z" fill="#2D68FF"/>
</g>
<path d="M196.72 205.7C195.768 205.895 194.896 206.374 194.22 207.073C193.544 207.773 193.095 208.66 192.933 209.619C192.289 213.036 195.651 215.95 195.651 215.95C195.651 215.95 202.735 218.385 204.853 212.676C206.971 206.966 200.148 205.482 196.72 205.7Z" stroke="#1A1A60" stroke-linecap="round" stroke-linejoin="round"/>
<path d="M217.648 213.592C219.626 213.91 221.449 214.86 222.844 216.3C224.907 218.625 223.226 219.575 221.905 219.236C220.584 218.898 216.239 212.479 217.648 213.592Z" fill="white" stroke="#1A1A60" stroke-linecap="round" stroke-linejoin="round"/>
<path d="M216.271 213.167C218.188 213.755 219.862 214.95 221.041 216.572C222.766 219.149 220.965 219.847 219.709 219.345C218.454 218.843 215.026 211.868 216.271 213.167Z" fill="white" stroke="#1A1A60" stroke-linecap="round" stroke-linejoin="round"/>
<path d="M203.914 208.08C203.914 208.08 200.64 209.28 200.279 211.354C200.22 212.002 200.296 212.655 200.503 213.271C200.71 213.888 201.042 214.454 201.48 214.935C201.48 214.935 204.755 217.555 205.999 217.828C207.244 218.101 210.038 219.694 210.366 218.177C210.693 216.66 207.375 215.317 207.375 215.317C207.375 215.317 213.717 215.699 213.925 216.976C214.132 218.254 216.424 219.574 218.455 219.607C220.485 219.64 218.029 215.535 217.538 214.509C217.047 213.483 207.975 208.156 203.914 208.08Z" fill="white" stroke="#1A1A60" stroke-linecap="round" stroke-linejoin="round"/>
<path d="M99.9597 143.74C99.9597 143.74 80.0049 155.344 78.4439 156.108C76.8829 156.872 75.3328 168.88 75.3328 170.015C75.3328 171.15 95.2876 216.245 95.2876 216.245C95.2876 216.245 100.2 220.404 114.577 220.404C128.953 220.404 130.067 218.221 130.067 218.221L131.213 199.194C131.213 199.194 136.125 186.335 136.507 184.064C136.889 181.794 132.479 153.925 132.479 153.925L112.066 140.312C112.066 140.312 103.748 135.422 99.9597 143.74Z" fill="white"/>
<g style="mix-blend-mode:multiply" opacity="0.5">
<path d="M80.4745 164.36C82.0356 161.86 96.4013 152.494 96.4013 152.494L101.707 149.372L108.507 139.056C105.778 138.554 102.132 138.969 99.96 143.739C99.96 143.739 79.9615 155.343 78.4441 156.097C76.9268 156.85 75.333 168.868 75.333 170.004C75.333 170.255 76.2718 172.569 77.7346 176.051C78.3022 170.888 79.3829 166.107 80.4745 164.36Z" fill="#2D68FF"/>
</g>
<path d="M99.9597 143.74C99.9597 143.74 80.0049 155.344 78.4439 156.108C76.8829 156.872 75.3328 168.88 75.3328 170.015C75.3328 171.15 95.2876 216.245 95.2876 216.245C95.2876 216.245 100.2 220.404 114.577 220.404C128.953 220.404 130.067 218.221 130.067 218.221L131.213 199.194C131.213 199.194 136.125 186.335 136.507 184.064C136.889 181.794 132.479 153.925 132.479 153.925L112.066 140.312C112.066 140.312 103.748 135.422 99.9597 143.74Z" stroke="#1A1A60" stroke-linecap="round" stroke-linejoin="round"/>
<path d="M106.651 161.74L112.469 168.017L111.258 194.707L119.772 196.956L120.667 185.298L123.8 197.404L130.077 191.127L116.508 167.57L118.299 160.398L110.679 151.883L105.756 163.542" fill="#1A1A60"/>
<path d="M106.651 161.74L112.469 168.017L111.258 194.707L119.772 196.956L120.667 185.298L123.8 197.404L130.077 191.127L116.508 167.57L118.299 160.398L110.679 151.883L105.756 163.542" stroke="#1A1A60" stroke-linecap="round" stroke-linejoin="round"/>
<path d="M96.0623 143.805C96.0623 143.805 97.3067 152.113 98.966 155.813C100.625 159.514 104.37 165.791 104.37 165.791L112.262 157.887L120.165 163.345C120.165 163.345 119.336 149.635 116.421 143.401C113.506 137.168 99.3808 130.924 96.0623 143.805Z" fill="white" stroke="#1A1A60" stroke-linecap="round" stroke-linejoin="round"/>
<g style="mix-blend-mode:multiply" opacity="0.5">
<path d="M101.706 149.372L109.598 137.365C108.158 136.734 106.616 136.364 105.046 136.273C103.693 136.546 102.164 136.884 100.549 137.244C98.573 138.336 96.9356 140.388 96.0623 143.794C96.0623 143.794 96.6845 147.986 97.6451 151.752L101.706 149.372Z" fill="#2D68FF"/>
</g>
<path d="M115.591 141.305C114.523 143.659 113.957 146.209 113.932 148.794C113.932 152.942 114.761 157.527 114.761 159.601V165.834C114.761 165.834 109.773 159.601 106.029 155.027C102.284 150.453 99.3806 146.294 99.7954 142.561C100.21 138.827 103.954 124.265 103.954 124.265C105.932 124.247 107.876 124.783 109.565 125.811C111.255 126.839 112.624 128.319 113.517 130.083C116.836 136.317 115.591 141.305 115.591 141.305Z" fill="white" stroke="#1A1A60" stroke-linecap="round" stroke-linejoin="round"/>
<g style="mix-blend-mode:multiply" opacity="0.5">
<path d="M102.645 134.079L101.401 134.679C100.637 137.954 99.9597 141.087 99.796 142.561C99.3921 146.163 102.088 150.202 105.636 154.568L106.084 145.977L115.592 141.338L107.95 133.795L102.645 134.079Z" fill="#2D68FF"/>
</g>
<path d="M123.67 136.841C123.67 136.841 120.919 141.938 123.888 142.146C126.858 142.353 126.213 139.81 126.639 138.969C127.065 138.129 128.975 140.061 127.916 144.056C126.858 148.052 121.552 150.846 118.365 147.659C115.177 144.471 116.04 141.109 117.098 138.543C118.157 135.978 122.426 134.723 123.67 136.841Z" fill="#1A1A60" stroke="#1A1A60" stroke-linecap="round" stroke-linejoin="round"/>
<path d="M117.709 91.7785C116.782 91.6475 115.81 91.5492 114.806 91.4947C111.149 91.3091 107.164 91.5492 104.315 93.8307C98.3987 98.5684 99.392 108.087 99.8178 114.713C100.298 122.235 100.2 133.205 105.844 138.653C115.373 147.844 130.274 138.009 130.274 127.114C130.274 122.508 130.449 115.488 130.754 113.917C131.152 111.975 131.426 110.009 131.573 108.033C132.228 98.0007 126.541 93.0339 117.709 91.7785Z" fill="white" stroke="#1A1A60" stroke-linecap="round" stroke-linejoin="round"/>
<g style="mix-blend-mode:multiply" opacity="0.5">
<path d="M121.225 140.617C118.558 140.58 115.897 140.376 113.256 140.006C109.206 139.384 103.584 132.823 106.389 123.774C109.195 114.724 109.206 110.03 109.206 110.03L99.6542 104.059C99.4351 107.609 99.4935 111.172 99.8288 114.713C100.309 122.234 100.211 133.205 105.855 138.652C110.483 143.128 116.378 143.084 121.225 140.617Z" fill="#2D68FF"/>
</g>
<path d="M115.81 120.816C116.407 120.816 116.891 119.985 116.891 118.96C116.891 117.935 116.407 117.104 115.81 117.104C115.213 117.104 114.729 117.935 114.729 118.96C114.729 119.985 115.213 120.816 115.81 120.816Z" fill="#1A1A60"/>
<path d="M126.476 119.418C126.41 120.444 125.864 121.241 125.275 121.198C124.685 121.154 124.249 120.303 124.314 119.276C124.38 118.25 124.915 117.453 125.515 117.497C126.115 117.541 126.541 118.392 126.476 119.418Z" fill="#1A1A60"/>
<path d="M112.458 114.517C112.458 114.517 114.641 109.91 118.145 112.082L112.458 114.517Z" fill="white"/>
<path d="M112.458 114.517C112.458 114.517 114.641 109.91 118.145 112.082" stroke="#1A1A60" stroke-linecap="round" stroke-linejoin="round"/>
<path d="M123.832 112.89C123.832 112.89 126.419 109.921 127.893 114.79L123.832 112.89Z" fill="white"/>
<path d="M123.832 112.89C123.832 112.89 126.419 109.921 127.893 114.79" stroke="#1A1A60" stroke-linecap="round" stroke-linejoin="round"/>
<path d="M122.152 122.649C122.152 122.835 122.152 123.021 122.152 123.184C122.425 125.084 123.779 126.459 123.244 127.245C122.709 128.031 119.969 128.337 119.969 128.337" fill="white"/>
<path d="M122.152 122.649C122.152 122.835 122.152 123.021 122.152 123.184C122.425 125.084 123.779 126.459 123.244 127.245C122.709 128.031 119.969 128.337 119.969 128.337" stroke="#1A1A60" stroke-linecap="round" stroke-linejoin="round"/>
<path d="M118.954 132.67C118.954 132.67 114.183 134.144 112.404 130.291L118.954 132.67Z" fill="white"/>
<path d="M118.954 132.67C118.954 132.67 114.183 134.144 112.404 130.291" stroke="#1A1A60" stroke-linecap="round" stroke-linejoin="round"/>
<path d="M114.882 123.501C117.981 123.501 120.493 120.989 120.493 117.89C120.493 114.791 117.981 112.279 114.882 112.279C111.784 112.279 109.271 114.791 109.271 117.89C109.271 120.989 111.784 123.501 114.882 123.501Z" stroke="#1A1A60" stroke-width="0.5" stroke-linecap="round" stroke-linejoin="round"/>
<path d="M127.577 123.501C130.357 123.501 132.61 120.989 132.61 117.89C132.61 114.791 130.357 112.279 127.577 112.279C124.798 112.279 122.545 114.791 122.545 117.89C122.545 120.989 124.798 123.501 127.577 123.501Z" stroke="#1A1A60" stroke-width="0.5" stroke-linecap="round" stroke-linejoin="round"/>
<path d="M109.271 117.89L101.259 118.228" stroke="#1A1A60" stroke-width="0.5" stroke-linecap="round" stroke-linejoin="round"/>
<path d="M132.61 117.89H130.558" stroke="#1A1A60" stroke-width="0.5" stroke-linecap="round" stroke-linejoin="round"/>
<path d="M120.481 116.176H122.807" stroke="#1A1A60" stroke-width="0.5" stroke-linecap="round" stroke-linejoin="round"/>
<path d="M127.611 85.1523C123.422 84.4208 119.187 83.9831 114.937 83.8424C114.937 83.8424 107.503 80.3383 97.4711 84.279C83.1163 89.89 83.4328 109.059 86.9915 121.274C88.0831 124.964 90.6484 130.564 88.2905 134.264C86.8059 136.6 82.5595 135.356 83.2036 132.147C83.8476 128.937 84.8956 130.029 85.7471 129.603C86.5985 129.177 85.3213 128.752 83.411 128.119C81.5007 127.485 79.8305 129.21 79.5903 133.413C78.9572 144.875 95.8446 152.462 102.285 142.441C104.905 138.074 102.58 130.487 101.445 124.975C101.084 123.066 100.84 121.138 100.713 119.2C102.751 119.005 104.641 118.05 106.008 116.526C107.019 115.139 107.883 113.65 108.584 112.083C109.348 112.083 110.145 112.137 111.018 112.225C119.751 113.098 122.393 98.2299 122.393 98.2299C122.393 98.2299 126.759 106.537 128.069 109.605L129.379 112.661C129.379 112.661 132.883 113.098 136.376 105.664C139.87 98.2299 135.918 86.495 127.611 85.1523Z" fill="#1A1A60" stroke="#1A1A60" stroke-linecap="round" stroke-linejoin="round"/>
<path d="M121.889 94.7366C121.889 94.7366 132.631 98.4263 132.958 104.801C133.286 111.176 131.616 111.504 131.616 111.504" stroke="white" stroke-width="0.5" stroke-miterlimit="10" stroke-linecap="round"/>
<path d="M120.559 92.3896C120.559 92.3896 130.612 90.0426 133.975 96.7561" stroke="white" stroke-width="0.5" stroke-miterlimit="10" stroke-linecap="round"/>
<path d="M108.148 85.6763C108.148 85.6763 118.201 90.7086 119.882 95.4135C121.564 100.118 112.841 109.157 107.132 110.838C101.423 112.519 97.0785 110.5 93.0504 113.524C89.0223 116.547 90.7034 124.92 90.7034 124.92" stroke="white" stroke-width="0.5" stroke-miterlimit="10" stroke-linecap="round"/>
<path d="M87.6463 115.532C87.6463 115.532 84.961 109.157 90.6701 105.805C96.3793 102.454 101.401 105.805 107.776 101.777C114.151 97.7492 115.155 92.7278 115.155 92.7278" stroke="white" stroke-width="0.5" stroke-miterlimit="10" stroke-linecap="round"/>
<path d="M102.415 121.318C102.415 121.318 98.8894 112.748 95.3526 115.772C91.8157 118.796 97.8742 126.863 101.902 125.859" fill="white"/>
<path d="M102.415 121.318C102.415 121.318 98.8894 112.748 95.3526 115.772C91.8157 118.796 97.8742 126.863 101.902 125.859" stroke="#1A1A60" stroke-linecap="round" stroke-linejoin="round"/>
<g opacity="0.37">
<path d="M102.415 121.318C102.415 121.318 98.8894 112.748 95.3526 115.772C91.8157 118.796 97.8742 126.863 101.902 125.859" fill="#2D68FF"/>
<path d="M102.415 121.318C102.415 121.318 98.8894 112.748 95.3526 115.772C91.8157 118.796 97.8742 126.863 101.902 125.859" stroke="#1A1A60" stroke-linecap="round" stroke-linejoin="round"/>
</g>
<path d="M80.8785 156.97C80.8785 156.97 79.1646 155.682 75.3548 158.553C71.5451 161.424 67.9973 174.48 70.3771 180.014C72.7568 185.549 79.11 214.324 82.0683 215.896C85.0266 217.468 116.836 217.337 120.592 216.452C124.347 215.568 126.967 210.656 126.334 206.41C125.7 202.163 121.509 201.061 120.275 201.028C119.042 200.995 93.705 199.554 93.705 199.554L85.8344 166.303" fill="white"/>
<g style="mix-blend-mode:multiply" opacity="0.5">
<path d="M121.596 209.324C119.784 207.086 90.9432 210.983 87.8648 209.324C84.7865 207.665 83.3019 204.51 85.5506 202.381C87.7993 200.253 81.2496 199.772 81.3042 197.895C81.3588 196.017 85.1139 195.504 84.8738 192.993C84.6336 190.483 76.5229 189.959 76.7194 182.776C76.9159 175.593 78.717 166.904 80.3436 164.448C81.2443 163.412 82.2796 162.501 83.4219 161.74L80.8785 156.959C80.8785 156.959 79.1646 155.671 75.3548 158.542C71.5451 161.413 67.9973 174.48 70.3771 180.014C72.7568 185.549 79.11 214.324 82.0683 215.896C85.0266 217.468 116.836 217.337 120.592 216.452C121.805 216.064 122.909 215.391 123.809 214.489C124.709 213.586 125.38 212.482 125.766 211.267C123.746 210.689 122.131 209.979 121.596 209.324Z" fill="#2D68FF"/>
</g>
<path d="M80.8785 156.97C80.8785 156.97 79.1646 155.682 75.3548 158.553C71.5451 161.424 67.9973 174.48 70.3771 180.014C72.7568 185.549 79.11 214.324 82.0683 215.896C85.0266 217.468 116.836 217.337 120.592 216.452C124.347 215.568 126.967 210.656 126.334 206.41C125.7 202.163 121.509 201.061 120.275 201.028C119.042 200.995 93.705 199.554 93.705 199.554L85.8344 166.303" stroke="#1A1A60" stroke-linecap="round" stroke-linejoin="round"/>
<path d="M84.0664 205.689C85.944 200.165 93.6945 200.056 93.6945 200.056C90.6033 199.247 87.3713 199.131 84.2302 199.718" stroke="#1A1A60" stroke-width="0.5" stroke-linecap="round" stroke-linejoin="round"/>
<path d="M124.958 202.403C123.811 202.894 122.832 203.709 122.142 204.749C121.451 205.788 121.079 207.006 121.072 208.254C120.941 212.73 123.91 213.559 124.641 214.073C125.373 214.586 129.783 216.954 131.562 215.503C133.341 214.051 135.437 210.143 133.745 206.868C132.053 203.593 126.693 202.447 124.958 202.403Z" fill="white"/>
<g style="mix-blend-mode:multiply" opacity="0.5">
<path d="M131.562 215.503C132.015 215.118 132.418 214.678 132.762 214.193L129.051 212.217C125.645 211.278 122.403 210.318 121.595 209.324C121.454 209.176 121.278 209.067 121.082 209.008C121.289 212.828 123.942 213.593 124.641 214.073C125.339 214.553 129.782 216.955 131.562 215.503Z" fill="#2D68FF"/>
</g>
<path d="M124.958 202.403C123.811 202.894 122.832 203.709 122.142 204.749C121.451 205.788 121.079 207.006 121.072 208.254C120.941 212.73 123.91 213.559 124.641 214.073C125.373 214.586 129.783 216.954 131.562 215.503C133.341 214.051 135.437 210.143 133.745 206.868C132.053 203.593 126.693 202.447 124.958 202.403Z" stroke="#1A1A60" stroke-linecap="round" stroke-linejoin="round"/>
<path d="M131.104 206.409C131.104 206.409 128.397 207.446 128.025 209.488C127.654 211.529 127.785 212.631 128.255 212.762C128.724 212.893 130.285 213.603 130.285 213.603L135.099 216.103C135.099 216.103 138.92 220.469 140.175 220.819C141.431 221.168 140.35 220.349 140.175 219.399C139.629 218.039 138.921 216.749 138.068 215.557L143.767 220.6C143.767 220.6 145.644 221.277 145.208 219.847C144.771 218.417 141.856 215.481 141.856 215.481L147.238 220.36C147.238 220.36 148.33 220.862 148.33 220.229C148.391 219.912 148.369 219.584 148.265 219.278C148.162 218.972 147.981 218.698 147.74 218.483C147.129 217.991 143.461 213.789 143.461 213.789L148.57 216.921C148.57 216.921 149.661 218.373 150.425 218.395C151.19 218.417 150.753 217.926 150.174 216.212C149.596 214.498 145.71 211.987 144.323 211.005C142.937 210.022 135.361 206.529 131.104 206.409Z" fill="white" stroke="#1A1A60" stroke-linecap="round" stroke-linejoin="round"/>
<path d="M375.344 205.1H332.705L340.379 180.211H383.018L375.344 205.1Z" fill="#1A1A60" stroke="#1A1A60" stroke-linecap="round" stroke-linejoin="round"/>
<path d="M371.992 207.447H329.364L337.038 182.547H379.666L371.992 207.447Z" fill="white" stroke="#1A1A60" stroke-linecap="round" stroke-linejoin="round"/>
<path d="M310.73 197.589H380.987C382.724 197.589 384.39 198.279 385.619 199.508C386.847 200.736 387.537 202.402 387.537 204.139V222.456H310.73V197.589Z" fill="#1A1A60" stroke="#1A1A60" stroke-linecap="round" stroke-linejoin="round"/>
<path d="M374.96 197.589H298.121V222.489H374.96V197.589Z" fill="white" stroke="#1A1A60" stroke-linecap="round" stroke-linejoin="round"/>
<path d="M357.67 215.809H296.288V219.094H357.67V215.809Z" fill="white" stroke="#1A1A60" stroke-linecap="round" stroke-linejoin="round"/>
<path d="M357.67 212.523H309.388V215.809H357.67V212.523Z" fill="#1A1A60" stroke="#1A1A60" stroke-linecap="round" stroke-linejoin="round"/>
<path d="M296.54 220.066H248.104V222.325H296.54V220.066Z" fill="white" stroke="#1A1A60" stroke-linecap="round" stroke-linejoin="round"/>
<path d="M333.785 140.083H229.383V207.414H333.785V140.083Z" fill="white" stroke="#1A1A60" stroke-linecap="round" stroke-linejoin="round"/>
<path d="M333.785 140.083H235.081V207.414H333.785V140.083Z" fill="#1A1A60" stroke="#1A1A60" stroke-linecap="round" stroke-linejoin="round"/>
<path d="M297.663 171.369H274.816V223.352H297.663V171.369Z" fill="white" stroke="#1A1A60" stroke-linecap="round" stroke-linejoin="round"/>
<path d="M299.771 171.369H276.923V223.352H299.771V171.369Z" fill="#1A1A60" stroke="#1A1A60" stroke-linecap="round" stroke-linejoin="round"/>
<path d="M275.406 171.98H300.306V207.578" stroke="white" stroke-linejoin="round"/>
<path d="M228.663 218.854H158.723V222.511H228.663V218.854Z" fill="white" stroke="#1A1A60" stroke-linecap="round" stroke-linejoin="round"/>
<path d="M246.74 218.854H176.8V222.511H246.74V218.854Z" fill="white" stroke="#1A1A60" stroke-linecap="round" stroke-linejoin="round"/>
<path d="M156.026 228.537H48.8614L43.7744 385.141C43.7464 385.575 43.805 386.01 43.9468 386.42C44.0886 386.831 44.3107 387.21 44.6003 387.534C44.8899 387.858 45.241 388.121 45.6334 388.308C46.0257 388.495 46.4514 388.602 46.8855 388.623C47.6884 388.6 48.4534 388.276 49.0294 387.716C49.6054 387.157 49.9505 386.401 49.9966 385.599L60.2251 257.629C60.3549 255.346 61.3345 253.195 62.971 251.599C64.6076 250.003 66.7824 249.077 69.0673 249.005H135.82C138.104 249.078 140.277 250.004 141.912 251.6C143.547 253.196 144.524 255.347 144.651 257.629L154.891 385.577C154.936 386.378 155.28 387.132 155.854 387.691C156.427 388.251 157.19 388.575 157.991 388.601C158.425 388.582 158.851 388.476 159.244 388.29C159.636 388.105 159.988 387.843 160.279 387.52C160.569 387.197 160.793 386.819 160.936 386.409C161.079 385.998 161.139 385.564 161.113 385.13L156.026 228.537Z" fill="#2D68FF" stroke="#1A1A60" stroke-linecap="round" stroke-linejoin="round"/>
<path d="M156.266 235.742L156.026 228.537H120.974H83.9132H48.8613L48.6211 235.742H156.266Z" fill="#1A1A60" stroke="#1A1A60" stroke-linecap="round" stroke-linejoin="round"/>
<path d="M400.068 228.537H292.871L287.795 385.141C287.769 385.573 287.828 386.007 287.971 386.417C288.113 386.826 288.336 387.204 288.625 387.527C288.915 387.849 289.265 388.112 289.657 388.298C290.048 388.484 290.473 388.591 290.906 388.612C291.707 388.586 292.47 388.261 293.043 387.702C293.617 387.142 293.961 386.388 294.007 385.588L304.268 257.628C304.398 255.346 305.377 253.195 307.014 251.599C308.65 250.003 310.825 249.077 313.11 249.005H379.862C382.146 249.077 384.32 250.003 385.955 251.6C387.589 253.196 388.567 255.347 388.694 257.628L398.933 385.577C398.974 386.381 399.315 387.14 399.889 387.705C400.463 388.269 401.229 388.596 402.033 388.623C402.466 388.602 402.891 388.495 403.283 388.309C403.674 388.123 404.025 387.86 404.314 387.537C404.604 387.215 404.826 386.837 404.969 386.428C405.111 386.018 405.171 385.584 405.144 385.151L400.068 228.537Z" fill="#2D68FF" stroke="#1A1A60" stroke-linecap="round" stroke-linejoin="round"/>
<path d="M400.779 235.741L400.55 228.537H365.498H328.427H293.375L293.146 235.741H400.779Z" fill="#1A1A60" stroke="#1A1A60" stroke-linecap="round" stroke-linejoin="round"/>
<path d="M407.131 222.49H40.1719V230.742H407.131V222.49Z" fill="white" stroke="#1A1A60" stroke-linecap="round" stroke-linejoin="round"/>
<path d="M407.142 222.49H144.127V230.742H407.142V222.49Z" fill="white" stroke="#1A1A60" stroke-linecap="round" stroke-linejoin="round"/>
</svg>
